<svg width="44" height="56" viewBox="0 0 44 56" fill="none" xmlns="http://www.w3.org/2000/svg">
<path fill-rule="evenodd" clip-rule="evenodd" d="M44 5C44 2.23858 41.7614 0 39 0H5C2.23858 0 0 2.23858 0 5V51C0 53.7614 2.23858 56 5 56H39C41.7614 56 44 53.7614 44 51V5ZM7 42C7 40.8954 7.89543 40 9 40H35C36.1046 40 37 40.8954 37 42C37 43.1046 36.1046 44 35 44H9C7.89543 44 7 43.1046 7 42ZM37 34C37 32.8954 36.1046 32 35 32H9C7.89543 32 7 32.8954 7 34C7 35.1046 7.89543 36 9 36H35C36.1046 36 37 35.1046 37 34ZM7 26C7 24.8954 7.89543 24 9 24H35C36.1046 24 37 24.8954 37 26C37 27.1046 36.1046 28 35 28H9C7.89543 28 7 27.1046 7 26ZM37 18C37 16.8954 36.1046 16 35 16H9C7.89543 16 7 16.8954 7 18C7 19.1046 7.89543 20 9 20H35C36.1046 20 37 19.1046 37 18ZM7 10C7 8.89543 7.89543 8 9 8H35C36.1046 8 37 8.89543 37 10C37 11.1046 36.1046 12 35 12H9C7.89543 12 7 11.1046 7 10Z" fill="black"/>
</svg>
